<?xml version="1.0" encoding="utf-8"?>
<!-- Generator: Adobe Illustrator 18.1.1, SVG Export Plug-In . SVG Version: 6.00 Build 0)  -->
<svg version="1.1" id="Layer_1" xmlns="http://www.w3.org/2000/svg" xmlns:xlink="http://www.w3.org/1999/xlink" x="0px" y="0px"
	 width="303.8px" height="64.6px" viewBox="0 0 303.8 64.6" style="enable-background:new 0 0 303.8 64.6;" xml:space="preserve">
<style type="text/css">
	.st0{fill:#DB0054;}
	.st1{fill:#1792D9;}
</style>
<g>
	<g>
		<path class="st0" d="M34.7,61.4c-0.2,0.5-0.4,0.9-0.6,1.3c-0.2,0.3-0.6,0.6-1.2,0.7c-0.5,0.2-1.3,0.3-2.2,0.3
			c-0.9,0-2.2,0.1-3.7,0.1c-1.2,0-2.3,0-3.1,0s-1.6-0.1-2.2-0.1c-0.6-0.1-1.1-0.2-1.5-0.3c-0.4-0.1-0.7-0.3-1-0.5
			c-0.3-0.2-0.5-0.4-0.6-0.7c-0.1-0.3-0.3-0.6-0.4-1L0.7,8.9C0.3,7.8,0.1,7,0,6.3c-0.1-0.6,0.1-1.1,0.5-1.4c0.4-0.3,1-0.5,1.9-0.6
			s2.2-0.1,3.8-0.1c1.4,0,2.5,0,3.3,0.1c0.8,0.1,1.4,0.2,1.8,0.3c0.4,0.2,0.7,0.4,0.9,0.7c0.2,0.3,0.3,0.7,0.5,1.1L27.1,52h0
			L41.2,6.7C41.4,6.1,52.7,8,52.3,9L34.7,61.4z"/>
	</g>
	<g>
		<path class="st1" d="M107.5,60.5c-0.2,0.7-0.4,1.3-0.8,1.8c-0.3,0.4-0.8,0.8-1.4,1c-0.6,0.2-1.5,0.4-2.5,0.5
			c-1,0.1-2.3,0.1-3.8,0.1c-1.7,0-3.1,0-4.2-0.1c-1-0.1-1.9-0.2-2.5-0.5c-0.6-0.2-1-0.6-1.3-1c-0.3-0.4-0.5-1-0.6-1.8L80.9,23h-0.1
			l-8.9,37.4c-0.2,0.7-0.4,1.3-0.6,1.7c-0.3,0.4-0.7,0.8-1.3,1c-0.6,0.2-1.4,0.4-2.4,0.5c-1,0.1-2.4,0.1-4,0.1c-1.8,0-3.2,0-4.2-0.1
			c-1-0.1-1.9-0.2-2.5-0.5c-0.6-0.2-1-0.6-1.3-1c-0.3-0.4-0.5-1-0.7-1.8L41.4,8.9c-0.3-1.1-0.4-2-0.5-2.6c0-0.6,0.1-1.1,0.5-1.4
			c0.4-0.3,1-0.5,1.9-0.6c0.9-0.1,2.1-0.1,3.6-0.1c1.4,0,2.6,0,3.4,0.1c0.8,0,1.5,0.2,1.9,0.3c0.4,0.2,0.7,0.4,0.9,0.7
			c0.2,0.3,0.3,0.8,0.4,1.3l10.4,45.2h0L74.6,7c0.1-0.6,0.3-1,0.5-1.4c0.2-0.4,0.5-0.6,1-0.8c0.5-0.2,1.1-0.3,1.9-0.4
			s1.9-0.1,3.3-0.1c1.5,0,2.6,0,3.5,0.1c0.9,0.1,1.5,0.2,2,0.4c0.5,0.2,0.8,0.5,1,0.8c0.2,0.4,0.4,0.9,0.5,1.5l11.1,44.9h0.1
			L110,6.8c0.1-0.5,0.2-0.9,0.4-1.3c0.2-0.3,0.4-0.6,0.9-0.8c0.4-0.2,1-0.3,1.8-0.4c0.8-0.1,1.9-0.1,3.3-0.1c1.3,0,2.4,0,3.1,0.1
			c0.7,0.1,1.3,0.3,1.6,0.6c0.3,0.3,0.5,0.8,0.4,1.5c0,0.7-0.2,1.5-0.5,2.7L107.5,60.5z"/>
		<path class="st1" d="M139.4,7.5c0,2.3-0.5,3.9-1.4,4.8c-0.9,0.9-2.7,1.3-5.2,1.3c-2.6,0-4.3-0.4-5.2-1.3c-0.9-0.9-1.3-2.4-1.3-4.6
			c0-2.3,0.5-3.9,1.4-4.8c0.9-0.9,2.7-1.3,5.3-1.3c2.6,0,4.3,0.4,5.2,1.3S139.4,5.3,139.4,7.5z M138.5,62c0,0.3-0.1,0.6-0.3,0.8
			c-0.2,0.2-0.5,0.4-0.9,0.6c-0.4,0.2-1,0.3-1.8,0.3c-0.7,0.1-1.7,0.1-2.8,0.1c-1.1,0-2.1,0-2.8-0.1c-0.7-0.1-1.3-0.2-1.8-0.3
			c-0.4-0.2-0.8-0.3-0.9-0.6S127,62.3,127,62V21.4c0-0.3,0.1-0.6,0.3-0.8c0.2-0.2,0.5-0.4,0.9-0.6c0.4-0.2,1-0.3,1.8-0.4
			c0.7-0.1,1.7-0.1,2.8-0.1c1.1,0,2.1,0,2.8,0.1c0.7,0.1,1.3,0.2,1.8,0.4c0.4,0.2,0.8,0.4,0.9,0.6c0.2,0.2,0.3,0.5,0.3,0.8V62z"/>
		<path class="st1" d="M176.3,50.5c0,2.3-0.4,4.4-1.3,6.1c-0.9,1.8-2.1,3.2-3.7,4.4c-1.6,1.2-3.5,2.1-5.6,2.7
			c-2.2,0.6-4.5,0.9-7,0.9c-1.5,0-3-0.1-4.4-0.3c-1.4-0.2-2.6-0.5-3.7-0.9c-1.1-0.3-2-0.7-2.7-1.1c-0.7-0.4-1.3-0.7-1.6-1
			c-0.3-0.3-0.6-0.8-0.8-1.5s-0.3-1.7-0.3-3c0-0.9,0-1.6,0.1-2.1c0.1-0.5,0.2-1,0.3-1.3c0.1-0.3,0.3-0.5,0.5-0.6
			c0.2-0.1,0.4-0.2,0.7-0.2c0.3,0,0.8,0.2,1.5,0.6c0.7,0.4,1.5,0.8,2.4,1.3c1,0.5,2.1,0.9,3.4,1.3c1.3,0.4,2.8,0.6,4.4,0.6
			c1,0,2-0.1,2.8-0.3c0.8-0.2,1.5-0.5,2.1-0.9c0.6-0.4,1-0.9,1.3-1.5c0.3-0.6,0.5-1.3,0.5-2.1c0-0.9-0.3-1.7-0.8-2.3
			c-0.6-0.7-1.3-1.2-2.2-1.7c-0.9-0.5-2-0.9-3.1-1.4c-1.2-0.4-2.4-0.9-3.6-1.4c-1.2-0.5-2.4-1.1-3.6-1.8c-1.2-0.7-2.2-1.5-3.1-2.5
			c-0.9-1-1.7-2.1-2.2-3.5c-0.6-1.4-0.8-3-0.8-4.9c0-1.9,0.4-3.7,1.1-5.4c0.8-1.6,1.9-3,3.3-4.2c1.4-1.2,3.2-2.1,5.2-2.7
			c2.1-0.6,4.4-1,6.9-1c1.3,0,2.5,0.1,3.7,0.3c1.2,0.2,2.3,0.4,3.3,0.7c1,0.3,1.8,0.6,2.5,0.9c0.7,0.3,1.1,0.6,1.4,0.8
			c0.3,0.2,0.5,0.5,0.6,0.7c0.1,0.2,0.2,0.5,0.3,0.8c0.1,0.3,0.1,0.7,0.2,1.2c0,0.5,0.1,1.1,0.1,1.8c0,0.8,0,1.5-0.1,2
			c0,0.5-0.1,0.9-0.2,1.2c-0.1,0.3-0.3,0.5-0.4,0.6c-0.2,0.1-0.4,0.2-0.6,0.2c-0.3,0-0.7-0.2-1.3-0.5c-0.6-0.3-1.3-0.7-2.2-1
			c-0.9-0.4-1.9-0.7-3-1c-1.1-0.3-2.4-0.5-3.9-0.5c-1,0-1.9,0.1-2.7,0.3c-0.8,0.2-1.4,0.5-1.9,0.9c-0.5,0.4-0.9,0.9-1.1,1.4
			c-0.2,0.5-0.4,1.1-0.4,1.7c0,0.9,0.3,1.7,0.9,2.4c0.6,0.6,1.3,1.2,2.3,1.7c0.9,0.5,2,0.9,3.2,1.4c1.2,0.4,2.4,0.9,3.7,1.4
			s2.4,1.1,3.7,1.8c1.2,0.7,2.3,1.5,3.2,2.5c0.9,1,1.7,2.1,2.3,3.5C176,47,176.3,48.6,176.3,50.5z"/>
		<path class="st1" d="M221.5,62c0,0.3-0.1,0.6-0.3,0.8s-0.5,0.4-0.9,0.6c-0.4,0.2-1,0.3-1.8,0.3c-0.7,0.1-1.7,0.1-2.8,0.1
			c-1.1,0-2.1,0-2.8-0.1c-0.7-0.1-1.3-0.2-1.8-0.3c-0.4-0.2-0.7-0.3-0.9-0.6S210,62.3,210,62V38.7c0-2-0.1-3.5-0.4-4.7
			c-0.3-1.1-0.7-2.1-1.3-2.9c-0.5-0.8-1.3-1.4-2.1-1.9c-0.9-0.4-1.9-0.7-3-0.7c-1.5,0-2.9,0.5-4.4,1.6c-1.5,1.1-3,2.6-4.7,4.7V62
			c0,0.3-0.1,0.6-0.3,0.8c-0.2,0.2-0.5,0.4-0.9,0.6c-0.4,0.2-1,0.3-1.8,0.3c-0.7,0.1-1.7,0.1-2.8,0.1c-1.1,0-2.1,0-2.8-0.1
			c-0.7-0.1-1.3-0.2-1.8-0.3c-0.4-0.2-0.8-0.3-0.9-0.6s-0.3-0.5-0.3-0.8V2c0-0.3,0.1-0.6,0.3-0.8c0.2-0.2,0.5-0.4,0.9-0.6
			c0.4-0.2,1-0.3,1.8-0.4s1.7-0.1,2.8-0.1c1.1,0,2.1,0,2.8,0.1c0.7,0.1,1.3,0.2,1.8,0.4c0.4,0.2,0.8,0.4,0.9,0.6
			c0.2,0.2,0.3,0.5,0.3,0.8v22.5c2-1.9,4-3.4,6-4.4c2.1-1,4.2-1.4,6.4-1.4c2.8,0,5.1,0.5,7,1.4c1.9,0.9,3.4,2.2,4.6,3.7
			c1.2,1.6,2,3.4,2.5,5.5c0.5,2.1,0.8,4.7,0.8,7.7V62z"/>
		<path class="st1" d="M268,40.4c0,1.4-0.3,2.4-0.9,3.1c-0.6,0.7-1.5,1-2.6,1h-24.8c0,1.7,0.2,3.3,0.6,4.7c0.4,1.4,1.1,2.6,2,3.6
			c0.9,1,2.1,1.7,3.5,2.3c1.4,0.5,3.1,0.8,5.1,0.8c2,0,3.8-0.1,5.3-0.4c1.5-0.3,2.8-0.6,3.9-1c1.1-0.3,2-0.7,2.8-1
			c0.7-0.3,1.3-0.4,1.8-0.4c0.3,0,0.5,0.1,0.7,0.2s0.3,0.3,0.5,0.6c0.1,0.3,0.2,0.7,0.3,1.2c0,0.5,0.1,1.1,0.1,1.9
			c0,0.7,0,1.2,0,1.7s-0.1,0.9-0.1,1.2c-0.1,0.3-0.2,0.6-0.3,0.8c-0.1,0.2-0.3,0.4-0.5,0.7c-0.2,0.2-0.7,0.5-1.6,0.9
			c-0.9,0.4-2,0.7-3.4,1.1c-1.4,0.3-2.9,0.7-4.7,0.9c-1.8,0.3-3.7,0.4-5.7,0.4c-3.6,0-6.8-0.5-9.5-1.4c-2.7-0.9-5-2.3-6.8-4.2
			s-3.2-4.2-4.1-7c-0.9-2.8-1.3-6.1-1.3-9.9c0-3.6,0.5-6.9,1.4-9.8c0.9-2.9,2.3-5.4,4.1-7.4c1.8-2,4-3.6,6.5-4.6
			c2.6-1.1,5.5-1.6,8.7-1.6c3.4,0,6.3,0.5,8.7,1.5s4.4,2.4,6,4.2c1.6,1.8,2.7,3.9,3.4,6.3c0.7,2.4,1.1,5.1,1.1,7.9V40.4z
			 M256.9,37.1c0.1-3.2-0.6-5.8-1.9-7.6c-1.4-1.8-3.5-2.8-6.4-2.8c-1.5,0-2.7,0.3-3.8,0.8c-1.1,0.5-2,1.3-2.7,2.2
			c-0.7,0.9-1.3,2-1.6,3.3c-0.4,1.3-0.6,2.6-0.7,4H256.9z"/>
		<path class="st1" d="M303.8,50.5c0,2.3-0.4,4.4-1.3,6.1c-0.9,1.8-2.1,3.2-3.7,4.4c-1.6,1.2-3.5,2.1-5.6,2.7
			c-2.2,0.6-4.5,0.9-7,0.9c-1.5,0-3-0.1-4.4-0.3c-1.4-0.2-2.6-0.5-3.7-0.9c-1.1-0.3-2-0.7-2.7-1.1c-0.7-0.4-1.3-0.7-1.6-1
			c-0.3-0.3-0.6-0.8-0.8-1.5s-0.3-1.7-0.3-3c0-0.9,0-1.6,0.1-2.1c0.1-0.5,0.2-1,0.3-1.3c0.1-0.3,0.3-0.5,0.5-0.6
			c0.2-0.1,0.4-0.2,0.7-0.2c0.3,0,0.8,0.2,1.5,0.6c0.7,0.4,1.5,0.8,2.4,1.3c1,0.5,2.1,0.9,3.4,1.3c1.3,0.4,2.8,0.6,4.4,0.6
			c1,0,2-0.1,2.8-0.3c0.8-0.2,1.5-0.5,2.1-0.9c0.6-0.4,1-0.9,1.3-1.5c0.3-0.6,0.5-1.3,0.5-2.1c0-0.9-0.3-1.7-0.8-2.3
			c-0.6-0.7-1.3-1.2-2.2-1.7c-0.9-0.5-2-0.9-3.1-1.4c-1.2-0.4-2.4-0.9-3.6-1.4c-1.2-0.5-2.4-1.1-3.6-1.8c-1.2-0.7-2.2-1.5-3.1-2.5
			c-0.9-1-1.7-2.1-2.2-3.5c-0.6-1.4-0.8-3-0.8-4.9c0-1.9,0.4-3.7,1.1-5.4c0.8-1.6,1.9-3,3.3-4.2c1.4-1.2,3.2-2.1,5.2-2.7
			c2.1-0.6,4.4-1,6.9-1c1.3,0,2.5,0.1,3.7,0.3c1.2,0.2,2.3,0.4,3.3,0.7c1,0.3,1.8,0.6,2.5,0.9c0.7,0.3,1.1,0.6,1.4,0.8
			c0.3,0.2,0.5,0.5,0.6,0.7c0.1,0.2,0.2,0.5,0.3,0.8c0.1,0.3,0.1,0.7,0.2,1.2c0,0.5,0.1,1.1,0.1,1.8c0,0.8,0,1.5-0.1,2
			c0,0.5-0.1,0.9-0.2,1.2c-0.1,0.3-0.3,0.5-0.4,0.6c-0.2,0.1-0.4,0.2-0.6,0.2c-0.3,0-0.7-0.2-1.3-0.5c-0.6-0.3-1.3-0.7-2.2-1
			c-0.9-0.4-1.9-0.7-3-1c-1.1-0.3-2.4-0.5-3.9-0.5c-1,0-1.9,0.1-2.7,0.3c-0.8,0.2-1.4,0.5-1.9,0.9c-0.5,0.4-0.9,0.9-1.1,1.4
			c-0.2,0.5-0.4,1.1-0.4,1.7c0,0.9,0.3,1.7,0.9,2.4c0.6,0.6,1.3,1.2,2.3,1.7c0.9,0.5,2,0.9,3.2,1.4c1.2,0.4,2.4,0.9,3.7,1.4
			s2.4,1.1,3.7,1.8c1.2,0.7,2.3,1.5,3.2,2.5c0.9,1,1.7,2.1,2.3,3.5C303.5,47,303.8,48.6,303.8,50.5z"/>
	</g>
</g>
</svg>
